<svg id="Capa_1" enable-background="new 0 0 512 512" height="512" viewBox="0 0 512 512" width="512" xmlns="http://www.w3.org/2000/svg"><g><path d="m508.656 244.584c-1.894-3.685-6.414-5.14-10.098-3.244-3.685 1.893-5.137 6.413-3.245 10.098 1.575 3.067 2.056 6.493 1.391 9.902l-13.901 70.978c-.603 3.102-3.341 5.352-6.508 5.352h-5.086c-.144-10.665-2.913-20.708-7.711-29.498l5.498-28.082c.749-3.828.744-7.696.044-11.42h6.446c4.61 0 8.36-3.75 8.36-8.36v-41.159c0-4.604-3.75-8.35-8.36-8.35h-14.39c-15.952 0-28.93 12.978-28.93 28.93 0 .458.03.911.051 1.366l-61.161-20.169c-3.289-1.085-6.627-1.486-9.864-1.286l-24.315-28.909c-18.703-22.232-41.25-40.306-67.015-53.722-25.773-13.419-53.513-21.524-82.446-24.09l-30.383-2.71c-16.122-1.43-32.214 1.627-46.541 8.572-.297.122-.582.264-.858.422-7.397 3.685-14.311 8.409-20.494 14.1l-39.217 36.128c-10.558 9.716-13.656 25.022-7.677 38.151l19.521 41.811c-14.758 1.422-29.213 5.746-42.326 12.724l-4.864 2.587c-8.993 4.77-14.577 14.06-14.577 24.245 0 7.392 3.04 14.578 8.331 19.706l8.838 8.596c-2.373 6.66-3.677 13.823-3.677 21.288 0 35.065 28.528 63.593 63.593 63.593 24.223 0 45.32-13.617 56.055-33.593h218.414c1.497 2.785 3.202 5.478 5.128 8.054 2.481 3.316 7.181 3.995 10.497 1.514 3.317-2.48 3.995-7.181 1.514-10.498-2.202-2.945-4.034-6.09-5.496-9.38-.052-.128-.11-.253-.169-.377-2.621-6.037-3.984-12.566-3.984-19.311 0-26.795 21.799-48.594 48.594-48.594s48.594 21.8 48.594 48.594-21.799 48.593-48.594 48.593c-4.932 0-9.795-.734-14.453-2.184-3.954-1.226-8.159.98-9.389 4.935-1.23 3.956.979 8.159 4.935 9.39 6.102 1.897 12.464 2.859 18.908 2.859 30.208 0 55.547-21.179 61.992-49.463h6.666c10.331 0 19.26-7.354 21.23-17.478l13.901-70.974c1.315-6.756.357-13.545-2.772-19.637zm-47.561-18.783h7.75v27.87h-7.388c-3.609-3.89-8.121-6.711-13.085-8.27-.788-1.768-1.207-3.688-1.207-5.669 0-7.682 6.249-13.931 13.93-13.931zm-65.429 19.038c-19.052 2.344-36.624 9.535-51.446 20.294l8.296-23.194c1.257-3.513 4.04-6.065 7.37-6.919.105-.027.211-.052.315-.081 1.959-.49 4.079-.451 6.155.234zm-239.964-119.686 30.384 2.71c26.97 2.391 52.826 9.945 76.848 22.453 24.015 12.504 45.031 29.351 62.463 50.074l21.053 25.03c-3.551 2.904-6.384 6.795-8.056 11.466l-10.751 30.056-50.042-30.206 5.089-8.431c2.141-3.547 1.001-8.156-2.545-10.297s-8.157-1.001-10.296 2.545l-18.159 30.085c-2.141 3.547-1.001 8.156 2.545 10.297 1.212.731 2.549 1.08 3.868 1.08 2.541 0 5.02-1.291 6.428-3.625l5.319-8.812 52.639 31.775-3.067 8.573c-6.962 9.583-12.434 20.315-16.065 31.857h-5.025v-10.51c0-12.748-10.371-23.119-23.119-23.119h-30.347l-31.724-36.794c-.283-.329-.439-.749-.439-1.184v-36.046c0-13.502-10.984-24.486-24.486-24.486h-8.695c-7.303 0-13.243 5.941-13.243 13.244v7.517h-45.439v-79.825c10.915-4.553 22.877-6.493 34.862-5.427zm15.576 228.387v-16.76h128.499c-.908 5.464-1.415 11.06-1.491 16.759h-127.008zm55.148-32.27-43.545-62.731c-1.049-1.511-1.603-3.282-1.603-5.122v-48.777h6.939c5.23 0 9.486 4.256 9.486 9.486v36.046c0 4.029 1.449 7.93 4.08 10.979l33.967 39.396c1.425 1.652 3.498 2.603 5.68 2.603h33.783c4.477 0 8.119 3.643 8.119 8.119v10.51h-55.938c-.386-.002-.748-.192-.968-.509zm-166.345-140.802 39.217-36.128c2.083-1.917 4.273-3.689 6.541-5.339v71.4h-45.726l-4.248-9.099c-3.254-7.145-1.561-15.517 4.216-20.834zm-41.301 117.427c-2.402-2.328-3.78-5.588-3.78-8.944 0-4.62 2.531-8.833 6.611-10.998l4.872-2.591c29.126-15.498 53.696-10.58 65.456-11.491 4.69 0 9.393.518 13.978 1.54 4.04.902 8.051-1.646 8.952-5.688.901-4.043-1.646-8.051-5.689-8.952-12.421-2.769-20.526-1.634-31.105-1.899l-10.958-23.469h99.161v28.016c0 4.911 1.48 9.641 4.281 13.675l37.962 54.688h-37.509c-1.229-14.861-6.679-29.304-15.654-41.242-3.522-4.693-7.573-8.992-12.038-12.778-3.161-2.681-7.893-2.289-10.571.871-2.679 3.159-2.289 7.892.871 10.57 3.613 3.062 6.89 6.542 9.745 10.346 8.328 11.077 12.914 24.808 12.914 38.663v25.28h-17.391c1.161-4.798 1.792-9.801 1.792-14.95 0-35.066-28.528-63.594-63.594-63.594-22 0-41.422 11.232-52.845 28.26zm58.305 89.238c-26.795 0-48.593-21.799-48.593-48.593s21.799-48.594 48.593-48.594c26.795 0 48.594 21.8 48.594 48.594s-21.799 48.593-48.594 48.593zm330.551-112.187c-35.066 0-63.594 28.528-63.594 63.594 0 5.118.601 10.141 1.772 15h-32.53c.805-52.267 43.565-94.539 96.02-94.539h29.98c4.579 0 8.875 2.029 11.787 5.566 2.914 3.54 4.082 8.148 3.202 12.642l-2.969 15.165c-11.4-10.79-26.768-17.428-43.668-17.428z"/><path d="m77.086 308.649c-16.482 0-29.891 13.409-29.891 29.891 0 16.481 13.409 29.89 29.891 29.89s29.891-13.409 29.891-29.89c-.001-16.482-13.41-29.891-29.891-29.891zm0 44.781c-8.211 0-14.891-6.68-14.891-14.89s6.68-14.891 14.891-14.891 14.891 6.681 14.891 14.891-6.681 14.89-14.891 14.89z"/><path d="m407.636 368.43c16.482 0 29.891-13.409 29.891-29.89 0-16.482-13.409-29.891-29.891-29.891s-29.89 13.409-29.89 29.891c0 16.481 13.409 29.89 29.89 29.89zm0-44.782c8.211 0 14.891 6.681 14.891 14.891s-6.68 14.89-14.891 14.89-14.89-6.68-14.89-14.89 6.68-14.891 14.89-14.891z"/></g></svg>